<svg height="512pt" viewBox="-49 0 512 512.00046" width="512pt" xmlns="http://www.w3.org/2000/svg"><path d="m297.816406 195.121094c-44.863281 4.675781-90 5.863281-135.003906 3.554687-16.480469-.84375-30.175781-13.390625-31.90625-29.804687-.265625-2.5-.398438-5.039063-.398438-7.613282v-10.746093c-32.832031 0-59.449218 26.617187-59.449218 59.449219v26.707031.015625.015625.835937l.007812.003906c.417969 20.796876 16.105469 38.25 36.859375 40.632813 66.109375 7.597656 132.871094 7.597656 198.984375 0 21.03125-2.417969 36.863282-20.316406 36.863282-41.488281.003906-24.726563-21.363282-44.128906-45.957032-41.5625zm0 0" fill="#c47f6a"/><path d="m299.097656 195.007812c8.101563 7.597657 13.214844 18.417969 13.214844 30.511719 0 21.171875-15.832031 39.074219-36.867188 41.488281-63.234374 7.265626-127.066406 7.582032-190.351562.949219 6.191406 5.507813 14.058594 9.207031 22.828125 10.214844 66.113281 7.597656 132.875 7.597656 198.984375 0 21.035156-2.417969 36.867188-20.316406 36.867188-41.488281 0-24.296875-20.625-43.449219-44.675782-41.675782zm0 0" fill="#93544c"/><path d="m217.429688 232.957031c0-4.203125-3.40625-7.609375-7.613282-7.609375-21.703125 0-40.90625-10.855468-52.503906-27.40625-13.941406-3.019531-24.871094-14.523437-26.40625-29.070312-.261719-2.5-.398438-5.039063-.398438-7.609375 0 43.730469 35.578126 79.308593 79.308594 79.308593 4.203125 0 7.613282-3.40625 7.613282-7.613281zm0 0" fill="#93544c"/><path d="m336.28125 383.0625c-85.628906 9.835938-172.101562 9.835938-257.730469 0-27.246093-3.128906-47.753906-26.316406-47.753906-53.738281 0-32.027344 27.675781-57.15625 59.527344-53.835938 77.851562 8.117188 156.335937 8.117188 234.183593 0 31.851563-3.320312 59.527344 21.808594 59.527344 53.835938 0 27.421875-20.507812 50.609375-47.753906 53.738281zm0 0" fill="#c47f6a"/><path d="m332.484375 275.242188c9.992187 9.792968 16.25 23.464843 16.25 38.695312 0 27.425781-20.503906 50.609375-47.75 53.738281-84.332031 9.691407-169.484375 9.835938-253.84375.441407 8.273437 8.078124 19.160156 13.539062 31.410156 14.945312 85.628907 9.839844 172.101563 9.839844 257.730469 0 27.246094-3.128906 47.753906-26.316406 47.753906-53.738281 0-29.320313-23.191406-52.855469-51.550781-54.082031zm0 0" fill="#93544c"/><path d="m358.753906 503.335938c-100.5625 11.554687-202.113281 11.554687-302.675781 0-31.996094-3.675782-56.078125-30.902344-56.078125-63.109376 0-37.609374 32.5-67.121093 69.90625-63.222656 91.425781 9.535156 183.59375 9.535156 275.015625 0 37.410156-3.898437 69.910156 25.613282 69.910156 63.222656 0 32.207032-24.082031 59.433594-56.078125 63.109376zm0 0" fill="#c47f6a"/><path d="m357.175781 376.90625c13.625 11.621094 22.355469 28.9375 22.355469 48.433594 0 32.207031-24.082031 59.433594-56.078125 63.109375-100.054687 11.496093-201.089844 11.554687-301.152344.175781 9.265625 7.917969 20.878907 13.226562 33.777344 14.710938 100.5625 11.554687 202.113281 11.554687 302.675781 0 31.996094-3.675782 56.078125-30.902344 56.078125-63.109376 0-33.429687-25.679687-60.460937-57.65625-63.320312zm0 0" fill="#93544c"/><g fill="#5b586d"><path d="m119.71875 109.882812c-1.222656 0-2.464844-.296874-3.617188-.921874-3.695312-2-5.070312-6.617188-3.066406-10.316407l8.542969-15.777343c4.121094-7.609376 4.121094-16.695313 0-24.300782-6.578125-12.152344-6.578125-26.65625 0-38.804687l8.542969-15.773438c2-3.695312 6.617187-5.070312 10.316406-3.066406 3.699219 2 5.070312 6.621094 3.070312 10.316406l-8.542968 15.773438c-4.121094 7.609375-4.121094 16.695312 0 24.304687 6.578125 12.148438 6.578125 26.652344 0 38.800782l-8.546875 15.777343c-1.375 2.542969-3.996094 3.988281-6.699219 3.988281zm0 0"/><path d="m198.867188 109.882812c-1.226563 0-2.464844-.296874-3.617188-.917968-3.699219-2.003906-5.070312-6.621094-3.070312-10.320313l8.542968-15.777343c4.121094-7.609376 4.121094-16.695313 0-24.300782-6.578125-12.148437-6.578125-26.65625.003906-38.804687l8.539063-15.769531c2-3.699219 6.621094-5.074219 10.316406-3.070313 3.699219 2.003906 5.070313 6.621094 3.070313 10.316406l-8.542969 15.773438c-4.121094 7.609375-4.121094 16.695312 0 24.304687 6.578125 12.148438 6.578125 26.65625 0 38.800782l-8.542969 15.777343c-1.378906 2.542969-3.996094 3.988281-6.699218 3.988281zm0 0"/><path d="m278.011719 109.882812c-1.222657 0-2.464844-.296874-3.617188-.921874-3.695312-2-5.070312-6.617188-3.066406-10.316407l8.542969-15.777343c4.121094-7.609376 4.121094-16.695313 0-24.300782-6.578125-12.152344-6.578125-26.65625 0-38.804687l8.542968-15.773438c2-3.695312 6.621094-5.070312 10.316407-3.066406 3.699219 2 5.070312 6.621094 3.070312 10.316406l-8.542969 15.773438c-4.121093 7.609375-4.121093 16.695312 0 24.304687 6.578126 12.148438 6.578126 26.652344 0 38.800782l-8.546874 15.777343c-1.375 2.542969-3.996094 3.988281-6.699219 3.988281zm0 0"/></g></svg>